HIERARCHY
ROOT Hips
{
	OFFSET 0.000000 0.000000 0.000000
	CHANNELS 6 Xposition Yposition Zposition Zrotation Yrotation Xrotation 
	JOINT LHipJoint
	{
		OFFSET 0.000000 0.000000 0.000000
		CHANNELS 3 Zrotation Yrotation Xrotation
		JOINT LeftUpLeg
		{
			OFFSET 1.363060 -1.794630 0.839290
			CHANNELS 3 Zrotation Yrotation Xrotation
			JOINT LeftLeg
			{
				OFFSET 2.448110 -6.726130 0.000000
				CHANNELS 3 Zrotation Yrotation Xrotation
				JOINT LeftFoot
				{
					OFFSET 2.562200 -7.039590 0.000000
					CHANNELS 3 Zrotation Yrotation Xrotation
					JOINT LeftToeBase
					{
						OFFSET 0.157640 -0.433110 2.322550
						CHANNELS 3 Zrotation Yrotation Xrotation
						End Site
						{
							OFFSET 0.000000 0.000000 0.000000
						}
					}
				}
			}
		}
	}
	JOINT RHipJoint
	{
		OFFSET 0.000000 0.000000 0.000000
		CHANNELS 3 Zrotation Yrotation Xrotation
		JOINT RightUpLeg
		{
			OFFSET -1.305520 -1.794630 0.839290
			CHANNELS 3 Zrotation Yrotation Xrotation
			JOINT RightLeg
			{
				OFFSET -2.542530 -6.985550 0.000000
				CHANNELS 3 Zrotation Yrotation Xrotation
				JOINT RightFoot
				{
					OFFSET -2.568260 -7.056230 0.000000
					CHANNELS 3 Zrotation Yrotation Xrotation
					JOINT RightToeBase
					{
						OFFSET -0.164730 -0.452590 2.363150
						CHANNELS 3 Zrotation Yrotation Xrotation
						End Site
						{
							OFFSET 0.000000 0.000000 0.000000
						}
					}
				}
			}
		}
	}
	JOINT LowerBack
	{
		OFFSET 0.000000 0.000000 0.000000
		CHANNELS 3 Zrotation Yrotation Xrotation
		JOINT Spine
		{
			OFFSET 0.028270 2.035590 -0.193380
			CHANNELS 3 Zrotation Yrotation Xrotation
			JOINT Spine1
			{
				OFFSET 0.056720 2.048850 -0.042750
				CHANNELS 3 Zrotation Yrotation Xrotation
				JOINT Neck
				{
					OFFSET 0.000000 0.000000 0.000000
					CHANNELS 3 Zrotation Yrotation Xrotation
					JOINT Neck1
					{
						OFFSET -0.054170 1.746240 0.172020
						CHANNELS 3 Zrotation Yrotation Xrotation
						JOINT Head
						{
							OFFSET 0.104070 1.761360 -0.123970
							CHANNELS 3 Zrotation Yrotation Xrotation
							End Site
							{
								OFFSET 0.000000 0.000000 0.000000
							}
						}
					}
				}
				JOINT LeftShoulder
				{
					OFFSET 0.000000 0.000000 0.000000
					CHANNELS 3 Zrotation Yrotation Xrotation
					JOINT LeftArm
					{
						OFFSET 3.362410 1.200890 -0.311210
						CHANNELS 3 Zrotation Yrotation Xrotation
						JOINT LeftForeArm
						{
							OFFSET 4.983000 -0.000000 -0.000000
							CHANNELS 3 Zrotation Yrotation Xrotation
							JOINT LeftHand
							{
								OFFSET 3.483560 -0.000000 -0.000000
								CHANNELS 3 Zrotation Yrotation Xrotation
								JOINT LeftFingerBase
								{
									OFFSET 0.000000 0.000000 0.000000
									CHANNELS 3 Zrotation Yrotation Xrotation
									JOINT LeftHandIndex1
									{
										OFFSET 0.715260 -0.000000 -0.000000
										CHANNELS 3 Zrotation Yrotation Xrotation
										End Site
										{
											OFFSET 0.000000 0.000000 0.000000
										}
									}
								}
								JOINT LThumb
								{
									OFFSET 0.000000 0.000000 0.000000
									CHANNELS 3 Zrotation Yrotation Xrotation
									End Site
									{
										OFFSET 0.000000 0.000000 0.000000
									}
								}
							}
						}
					}
				}
				JOINT RightShoulder
				{
					OFFSET 0.000000 0.000000 0.000000
					CHANNELS 3 Zrotation Yrotation Xrotation
					JOINT RightArm
					{
						OFFSET -3.136600 1.374050 -0.404650
						CHANNELS 3 Zrotation Yrotation Xrotation
						JOINT RightForeArm
						{
							OFFSET -5.241900 -0.000000 -0.000000
							CHANNELS 3 Zrotation Yrotation Xrotation
							JOINT RightHand
							{
								OFFSET -3.444170 -0.000000 -0.000000
								CHANNELS 3 Zrotation Yrotation Xrotation
								JOINT RightFingerBase
								{
									OFFSET 0.000000 0.000000 0.000000
									CHANNELS 3 Zrotation Yrotation Xrotation
									JOINT RightHandIndex1
									{
										OFFSET -0.622530 -0.000000 -0.000000
										CHANNELS 3 Zrotation Yrotation Xrotation
										End Site
										{
											OFFSET 0.000000 0.000000 0.000000
										}
									}
								}
								JOINT RThumb
								{
									OFFSET 0.000000 0.000000 0.000000
									CHANNELS 3 Zrotation Yrotation Xrotation
									End Site
									{
										OFFSET 0.000000 0.000000 0.000000
									}
								}
							}
						}
					}
				}
			}
		}
	}
}
MOTION
Frames: 12
Frame Time: 0.008333
-1.863784 17.264639 -1.200221 -179.454650 -76.554184 -167.073241 -10.640379 0.061641 -2.431167 -2.156049 10.110752 -19.846609 -1.425483 0.757567 18.340219 2.171905 14.287714 -0.869749 1.792200 0.000001 -49.534100 8.692090 -0.094961 -0.300421 9.592350 5.376730 -14.359869 2.511261 0.309312 8.816991 -0.705487 -2.852454 -3.588830 -0.597800 -0.000000 -57.457100 1.956284 -1.309883 4.576617 -0.204080 -1.289257 -2.113611 -5.746558 -1.273395 -0.500756 7.884846 -5.549013 -2.197992 -2.695546 -0.254092 1.333302 0.000000 0.000000 0.000000 0.439047 2.243142 1.585774 -58.354641 -10.521195 18.794208 -1.257682 -68.211383 -0.022680 2.702543 8.303264 0.203647 -0.131841 0.126701 0.000000 0.000000 0.000000 0.000000 0.000000 0.000000 0.000000 8.133105 -2.229776 -0.220215 66.861106 12.368271 24.583893 0.699429 71.361960 0.005692 1.110938 3.580145 0.037869 -0.005056 -0.251859 0.000000 0.000000 0.000000 0.000000 0.000000 0.000000 0.000000 
-1.862382 17.264540 -1.240458 179.546677 -76.652318 -166.444183 -10.631818 0.086823 -2.332180 -2.075702 9.398500 -20.189704 -1.326871 0.884757 19.968082 2.220197 14.645096 -0.435181 1.940000 0.000000 -50.499900 8.712312 -0.103642 -0.330888 9.507976 5.271993 -14.019390 2.479335 0.276479 9.040320 -0.728261 -2.906665 -3.818232 -0.580100 0.000001 -57.271200 1.827362 -1.315729 4.463144 -0.223219 -1.294087 -2.127879 -5.705884 -1.283909 -0.455148 7.900509 -5.547005 -2.365926 -2.674636 -0.251256 1.292295 0.000000 0.000000 0.000000 0.423937 2.268498 1.650751 -58.404060 -10.319858 19.101399 -1.390635 -66.065971 -0.021916 2.514230 8.359029 0.191606 -0.131010 0.116597 0.000000 0.000000 0.000000 0.000000 0.000000 0.000000 0.000000 8.227954 -2.222953 -0.173211 66.947906 12.331760 24.812231 0.780215 69.511577 0.005489 1.034017 3.693215 0.036175 -0.000578 -0.243187 0.000000 0.000000 0.000000 0.000000 0.000000 0.000000 0.000000 
-1.860117 17.264727 -1.280699 178.469131 -76.765475 -165.725437 -10.623682 0.107829 -2.229309 -2.012332 8.655126 -20.627672 -1.224687 1.017872 21.717387 2.261536 14.957420 0.061771 2.099300 0.000000 -51.544700 8.736653 -0.110224 -0.368179 9.408616 5.123080 -13.693213 2.448746 0.245269 9.244520 -0.745698 -2.935437 -4.031654 -0.560800 0.000000 -57.112700 1.687140 -1.325003 4.352179 -0.244603 -1.301633 -2.142988 -5.665762 -1.297149 -0.414724 7.921131 -5.530331 -2.532669 -2.654536 -0.248467 1.251502 0.000000 0.000000 0.000000 0.416335 2.279530 1.719081 -58.478238 -10.102149 19.372144 -1.526519 -63.892060 -0.021241 2.297639 8.453012 0.178163 -0.130172 0.106212 0.000000 0.000000 0.000000 0.000000 0.000000 0.000000 0.000000 8.320283 -2.203175 -0.124053 67.063429 12.258779 24.982920 0.863442 67.621888 0.005341 0.963235 3.807891 0.034481 0.003740 -0.234508 0.000000 0.000000 0.000000 0.000000 0.000000 0.000000 0.000000 
-1.856999 17.265193 -1.320843 177.307585 -76.894001 -164.911803 -10.616692 0.123561 -2.123637 -1.965944 7.885598 -21.161618 -1.117425 1.156013 23.582402 2.296927 15.230874 0.638057 2.274600 0.000001 -52.735300 8.765292 -0.114357 -0.413751 9.293338 4.925427 -13.380059 2.419839 0.215863 9.427989 -0.757126 -2.934730 -4.230574 -0.539500 0.000000 -56.964400 1.535771 -1.338152 4.246690 -0.268091 -1.312185 -2.155925 -5.625957 -1.313094 -0.370121 7.948013 -5.536505 -2.709277 -2.635753 -0.245614 1.207806 0.000000 0.000000 0.000000 0.409572 2.289525 1.787238 -58.571922 -9.887346 19.602634 -1.664891 -61.695473 -0.020697 2.056331 8.588377 0.163217 -0.129366 0.095613 0.000000 0.000000 0.000000 0.000000 0.000000 0.000000 0.000000 8.420002 -2.211714 -0.070980 67.195174 12.203954 25.142478 0.950871 65.675631 0.005192 0.873400 3.935509 0.031988 0.008506 -0.225889 0.000000 0.000000 0.000000 0.000000 0.000000 0.000000 0.000000 
-1.852980 17.265898 -1.360586 176.071978 -77.038080 -164.010996 -10.611532 0.132316 -2.015877 -1.933104 7.095045 -21.795303 -1.004247 1.298174 25.562163 2.327168 15.466317 1.294121 2.465300 -0.000001 -53.907400 8.797177 -0.116206 -0.466396 9.164508 4.686479 -13.078749 2.392295 0.188804 9.586583 -0.763929 -2.913518 -4.411963 -0.517700 0.000000 -56.841500 1.378475 -1.354498 4.147044 -0.292711 -1.325332 -2.169691 -5.586510 -1.331638 -0.333221 7.978788 -5.522618 -2.882644 -2.617686 -0.242819 1.164828 0.000000 0.000000 0.000000 0.405849 2.283046 1.858432 -58.690497 -9.651109 19.772111 -1.805143 -59.490140 -0.020312 1.799192 8.757552 0.147073 -0.128708 0.085126 0.000000 0.000000 0.000000 0.000000 0.000000 0.000000 0.000000 8.512540 -2.201142 -0.015350 67.355334 12.102998 25.222338 1.040571 63.703486 0.005123 0.798349 4.061790 0.029993 0.012957 -0.217304 0.000000 0.000000 0.000000 0.000000 0.000000 0.000000 0.000000 
-1.848036 17.266820 -1.399668 174.765758 -77.197677 -163.026586 -10.608821 0.132338 -1.907008 -1.911638 6.287155 -22.526750 -0.883274 1.442893 27.645009 2.354597 15.676353 2.051374 2.678400 -0.000000 -55.044400 8.831525 -0.115372 -0.526273 9.023416 4.411337 -12.786376 2.365912 0.164349 9.717918 -0.767081 -2.877339 -4.576128 -0.496200 -0.000000 -56.737900 1.218398 -1.373854 4.055473 -0.317764 -1.340951 -2.182989 -5.547096 -1.352521 -0.300812 8.013208 -5.502819 -3.056859 -2.600486 -0.240035 1.121388 0.000000 0.000000 0.000000 0.401158 2.266169 1.930734 -58.832766 -9.400419 19.871901 -1.946410 -57.285123 -0.020118 1.536249 8.954742 0.130027 -0.128274 0.074955 0.000000 0.000000 0.000000 0.000000 0.000000 0.000000 0.000000 8.600257 -2.186792 0.043717 67.536376 11.976987 25.236364 1.133172 61.703556 0.005109 0.728223 4.189997 0.027900 0.017336 -0.208795 0.000000 0.000000 0.000000 0.000000 0.000000 0.000000 0.000000 
-1.842250 17.267915 -1.437796 173.395839 -77.371845 -161.963757 -10.609058 0.121816 -1.797843 -1.898664 5.466242 -23.352565 -0.753295 1.588324 29.816708 2.381513 15.871262 2.928741 2.920000 0.000000 -56.059600 8.867185 -0.111674 -0.592830 8.872379 4.108313 -12.499745 2.340370 0.142877 9.819488 -0.768078 -2.834540 -4.723727 -0.475799 -0.000000 -56.648800 1.059660 -1.395648 3.973437 -0.342456 -1.358650 -2.195864 -5.507669 -1.375349 -0.274251 8.050649 -5.473494 -3.230720 -2.584233 -0.237280 1.077779 0.000000 0.000000 0.000000 0.393833 2.238578 2.003719 -58.998920 -9.132558 19.890533 -2.087628 -55.092008 -0.020120 1.279225 9.170399 0.112781 -0.128137 0.065350 0.000000 0.000000 0.000000 0.000000 0.000000 0.000000 0.000000 8.681610 -2.164464 0.106540 67.734726 11.820160 25.172872 1.228428 59.685743 0.005150 0.665182 4.316316 0.026004 0.021602 -0.200376 0.000000 0.000000 0.000000 0.000000 0.000000 0.000000 0.000000 
-1.835481 17.269119 -1.474621 171.969096 -77.559198 -160.831405 -10.612431 0.098653 -1.689851 -1.891218 4.637905 -24.266747 -0.613993 1.732514 32.060482 2.410036 16.058585 3.942485 3.195300 -0.000000 -56.850100 8.902879 -0.104657 -0.665686 8.713933 3.787946 -12.214140 2.315066 0.124530 9.888999 -0.768828 -2.796205 -4.854102 -0.457700 0.000001 -56.577000 0.906462 -1.419068 3.903406 -0.366010 -1.377782 -2.208639 -5.468241 -1.399506 -0.256794 8.090068 -5.424037 -3.400950 -2.569025 -0.234596 1.034856 0.000000 0.000000 0.000000 0.383207 2.197987 2.077434 -59.190004 -8.841270 19.815901 -2.227499 -52.923524 -0.020306 1.041460 9.390997 0.096236 -0.128358 0.056583 0.000000 0.000000 0.000000 0.000000 0.000000 0.000000 0.000000 8.753455 -2.121930 0.173221 67.948420 11.617271 25.008071 1.325753 57.665243 0.005255 0.618260 4.432748 0.024508 0.025589 -0.192044 0.000000 0.000000 0.000000 0.000000 0.000000 0.000000 0.000000 
-1.827947 17.270420 -1.509893 170.489961 -77.757353 -159.630473 -10.618904 0.060976 -1.583357 -1.888388 3.807968 -25.264467 -0.465482 1.872778 34.351657 2.443131 16.250548 5.119886 3.513800 -0.000000 -57.491100 8.937577 -0.094049 -0.744179 8.549380 3.457028 -11.930798 2.289909 0.109375 9.928842 -0.770169 -2.765918 -4.971018 -0.441900 0.000000 -56.506500 0.761041 -1.443639 3.845889 -0.387874 -1.397969 -2.218044 -5.428357 -1.424285 -0.236093 8.132608 -5.401833 -3.581620 -2.554894 -0.231805 0.988701 0.000000 0.000000 0.000000 0.362118 2.166737 2.147024 -59.398698 -8.553217 19.655205 -2.364473 -50.786838 -0.020660 0.834340 9.610385 0.081193 -0.128947 0.048706 0.000000 0.000000 0.000000 0.000000 0.000000 0.000000 0.000000 8.826688 -2.110859 0.245011 68.157795 11.438290 24.817798 1.426873 55.619308 0.005352 0.543766 4.557385 0.021912 0.030105 -0.183904 0.000000 0.000000 0.000000 0.000000 0.000000 0.000000 0.000000 
-1.819496 17.271771 -1.543359 168.964991 -77.963615 -158.370670 -10.628011 0.007183 -1.480571 -1.888258 2.986769 -26.337107 -0.310864 2.007317 36.673970 2.480699 16.436410 6.448558 3.869400 -0.000000 -57.754300 8.970080 -0.079959 -0.827371 8.381429 3.126609 -11.644288 2.264233 0.097326 9.937575 -0.773850 -2.754127 -5.072817 -0.429300 0.000000 -56.445400 0.626361 -1.467600 3.802991 -0.407872 -1.417629 -2.227673 -5.389189 -1.448451 -0.227710 8.176984 -5.349158 -3.755210 -2.542372 -0.229165 0.944097 0.000000 0.000000 0.000000 0.336487 2.122407 2.216750 -59.628622 -8.234906 19.388381 -2.497024 -48.701144 -0.021133 0.669857 9.810365 0.068953 -0.129910 0.042012 0.000000 0.000000 0.000000 0.000000 0.000000 0.000000 0.000000 8.890995 -2.066993 0.320996 68.372538 11.197438 24.502438 1.528954 53.596499 0.005503 0.488881 4.661488 0.019815 0.034230 -0.175901 0.000000 0.000000 0.000000 0.000000 0.000000 0.000000 0.000000 
-1.810269 17.273172 -1.574834 167.398779 -78.173841 -157.055070 -10.639025 -0.063963 -1.382734 -1.890432 2.184537 -27.478952 -0.153417 2.134247 39.004640 2.523373 16.611326 7.925464 4.259500 -0.000001 -57.685600 8.999546 -0.062379 -0.914289 8.211417 2.803157 -11.356127 2.237894 0.088252 9.917501 -0.780381 -2.763391 -5.160356 -0.420000 -0.000000 -56.390100 0.503476 -1.490265 3.775333 -0.425828 -1.436133 -2.235178 -5.350774 -1.471144 -0.222865 8.224231 -5.298898 -3.931518 -2.531616 -0.226560 0.898306 0.000000 0.000000 0.000000 0.301865 2.082692 2.283153 -59.873244 -7.905172 19.024927 -2.623540 -46.675327 -0.021682 0.556249 9.982042 0.060415 -0.131197 0.036506 0.000000 0.000000 0.000000 0.000000 0.000000 0.000000 0.000000 8.955311 -2.025761 0.401790 68.578366 10.943432 24.113520 1.633041 51.583697 0.005665 0.426405 4.755189 0.017317 0.038466 -0.168101 0.000000 0.000000 0.000000 0.000000 0.000000 0.000000 0.000000 
-1.800353 17.274628 -1.604246 165.797750 -78.384117 -155.689886 -10.651034 -0.152793 -1.291501 -1.895608 1.413819 -28.684073 0.002239 2.252612 41.326566 2.569663 16.757593 9.520448 4.670000 0.000000 -57.253100 9.025483 -0.041997 -1.003512 8.040385 2.491651 -11.067189 2.210807 0.081794 9.871730 -0.789954 -2.794617 -5.233803 -0.414000 0.000000 -56.340400 0.392863 -1.509914 3.762811 -0.442071 -1.451861 -2.242708 -5.314433 -1.490937 -0.229617 8.274219 -5.219472 -4.101002 -2.523463 -0.224173 0.853932 0.000000 0.000000 0.000000 0.261134 2.036367 2.348631 -60.129856 -7.544456 18.558730 -2.742596 -44.727407 -0.022247 0.497492 10.115083 0.056080 -0.132732 0.032256 0.000000 0.000000 0.000000 0.000000 0.000000 0.000000 0.000000 9.017698 -1.951547 0.487064 68.776786 10.628542 23.593106 1.737360 49.614217 0.005854 0.382269 4.819495 0.015417 0.042341 -0.160495 0.000000 0.000000 0.000000 0.000000 0.000000 0.000000 0.000000 
